<?xml version="1.0" encoding="utf-8"?>
<!-- Generator: Adobe Illustrator 28.0.0, SVG Export Plug-In . SVG Version: 6.00 Build 0)  -->
<svg version="1.1" id="Layer_1" xmlns="http://www.w3.org/2000/svg" xmlns:xlink="http://www.w3.org/1999/xlink" x="0px" y="0px"
	 viewBox="0 0 381.3 156.3" style="enable-background:new 0 0 381.3 156.3;" xml:space="preserve">
<style type="text/css">
	.st0{fill-rule:evenodd;clip-rule:evenodd;fill:#F3F3F3;}
	.st1{fill-rule:evenodd;clip-rule:evenodd;fill:#FFFFFF;}
	.st2{fill-rule:evenodd;clip-rule:evenodd;fill:#D82428;}
	.st3{fill-rule:evenodd;clip-rule:evenodd;fill:#2D3581;}
	.st4{fill-rule:evenodd;clip-rule:evenodd;fill:#0F9548;}
	.st5{clip-path:url(#SVGID_00000139259076605170061670000005951421184489043125_);}
	.st6{fill-rule:evenodd;clip-rule:evenodd;fill:none;stroke:#DBDBDB;stroke-miterlimit:10;}
	.st7{fill-rule:evenodd;clip-rule:evenodd;fill:#F3F3F3;stroke:#DBDBDB;stroke-miterlimit:10;}
</style>
<g>
	<path class="st1" d="M270.2,142.5l-39.4-68.9v70.7c0,6.5-5.7,11.8-12.1,11.8h-50.1c-7.4,0-12.3-5.9-12.3-13V64.8l-44.6,77.8
		c-4.1,7.8-11.4,14.1-20.7,13.7c-8.2-0.3-14.8-5.8-18.6-12.8L1.7,17.5l0-0.1C-3,8.6,2.6,0.3,12.3,0h44.6c3.8,0,7.5,0.7,10.4,3.4
		c2.4,2.2,3.6,5.3,5.4,8l0.1,0.2l18.4,34.2c0.3,0.5,0.8,1.4,1.3,2.3c0.5-0.9,1-1.8,1.4-2.4l18.6-34.8l0-0.1c1.4-2.5,2.6-4.9,4.7-6.9
		c3.6-3.4,8.3-4,13.1-3.8c43.1,0,74.2,0.1,118.3,0.1c5.4,0,10.8,0.6,14.8,4.6c1.8,1.8,2.8,3.8,4.2,5.7l0.1,0.1l0.1,0.1
		c7.9,11.5,14.7,23.5,22.7,35l18.9-34l0.1-0.2c1.8-2.7,3-5.7,5.4-8c2.3-2.1,5.1-3,8.2-3.3l0.2,0l45.3,0.2c5.8,0,11.5,3.6,12.6,9.6
		c0.5,2.5,0,5-1.3,7.2l-72.2,129.7l-0.2,0.3c-3.9,5.3-9.7,9-16.4,9.3C281.7,156.6,274.4,150.4,270.2,142.5"/>
	<path class="st2" d="M6.5,14.5l70.8,125.9c7.1,13.2,22.1,13.7,29.7-0.9l72.7-126.7c2.7-4.5,0.3-7.8-3.6-7.8h-45.9
		c-9-0.4-10.1,2.8-13,8L98.6,47.9c-1,1.6-3.8,7.4-6.1,7.5c-2.2-0.2-5-5.7-6-7.4L68.2,13.9C64.6,8.4,64.6,5,56.9,5H12.4
		C7.3,5.2,3.4,8.8,6.5,14.5"/>
	<path class="st3" d="M303,143.3c-7.7,10.3-21,9.7-28.1-3.8L231.7,64c-1.8-3.3-2-6.8,3.2-6.8c13.2,0,33.4,0,46.6,0
		c3.6,0,4.9-0.5,7.1-1.8c1.7-1,3-2.5,4.2-4.1l2.2-3.4l18.9-34c3.3-5.1,3.6-8.3,9.6-8.8l45,0.2c5.5,0,9,4.7,6.6,8.6L303,143.3z"/>
	<path class="st4" d="M162.9,61.6v82.7c0,3.2,1.7,5.6,4.9,5.6h51.9c2.4,0,4.7-2,4.7-4.4V58.1c0-3.7,1.2-5.8,6.6-5.8l44.7,0
		c4.3,0,10.9-0.2,8.3-5.6c-0.6-1.4-19.3-30.7-21.8-34.3c-3.5-4.7-3.1-7.3-13.2-7.3c0,0-52.1,0-52.3,0.1c-6.8,0.3-7,3.5-10.5,8.8
		l-17.9,30.4C164.6,50.9,163.2,50.6,162.9,61.6"/>
</g>
<g>
	<defs>
		<rect id="SVGID_1_" x="-1.4" y="193" width="1920.5" height="1078.5"/>
	</defs>
	<clipPath id="SVGID_00000106124052274445273640000002532309309768385675_">
		<use xlink:href="#SVGID_1_"  style="overflow:visible;"/>
	</clipPath>
	<g style="clip-path:url(#SVGID_00000106124052274445273640000002532309309768385675_);">
		<circle class="st6" cx="960" cy="732.7" r="1150.8"/>
		
			<ellipse transform="matrix(0.7071 -0.7071 0.7071 0.7071 -236.9106 893.4177)" class="st6" cx="960" cy="732.7" rx="1135.3" ry="1135.3"/>
		
			<ellipse transform="matrix(0.7071 -0.7071 0.7071 0.7071 -236.9093 893.4208)" class="st6" cx="960" cy="732.7" rx="1094" ry="1094"/>
		<path class="st6" d="M184.6-20.7c3.6-3.7,7.2-7.5,10.9-11.2c6-6,12-11.8,18.1-17.6l27.7,57.2L184.6-20.7z"/>
		<path class="st6" d="M152.4,13.8c3.5-3.9,6.9-7.8,10.4-11.6c5.7-6.2,11.5-12.3,17.3-18.4l30.2,55.9L152.4,13.8z"/>
		<path class="st6" d="M121.8,49.7c3.3-4,6.5-8.1,9.9-12.1c5.4-6.5,10.9-12.8,16.5-19.1l32.6,54.6L121.8,49.7z"/>
		<path class="st6" d="M92.8,86.9c3.1-4.2,6.2-8.3,9.3-12.5c5.1-6.7,10.4-13.3,15.6-19.9l35,53.1L92.8,86.9z"/>
		<path class="st6" d="M65.5,125.4c2.9-4.3,5.8-8.6,8.8-12.9c4.8-6.9,9.8-13.7,14.8-20.5l37.2,51.5L65.5,125.4z"/>
		<path class="st6" d="M39.9,165c2.7-4.4,5.4-8.9,8.2-13.2c4.5-7.1,9.2-14.2,13.8-21.1l39.5,49.8L39.9,165z"/>
		
			<ellipse transform="matrix(0.7071 -0.7071 0.7071 0.7071 -236.9093 893.4208)" class="st6" cx="960" cy="732.7" rx="1007.7" ry="1007.7"/>
		
			<ellipse transform="matrix(0.7071 -0.7071 0.7071 0.7071 -236.9091 893.4207)" class="st6" cx="960" cy="732.7" rx="996.1" ry="996.1"/>
		
			<ellipse transform="matrix(0.7071 -0.7071 0.7071 0.7071 -236.9093 893.4208)" class="st6" cx="960" cy="732.7" rx="921.5" ry="921.5"/>
		
			<ellipse transform="matrix(0.7071 -0.7071 0.7071 0.7071 -236.9093 893.4208)" class="st6" cx="960" cy="732.7" rx="910.3" ry="910.3"/>
		
			<ellipse transform="matrix(0.7071 -0.7071 0.7071 0.7071 -236.9093 893.4208)" class="st6" cx="960" cy="732.7" rx="834.3" ry="834.3"/>
		
			<ellipse transform="matrix(0.7071 -0.7071 0.7071 0.7071 -236.9093 893.4208)" class="st6" cx="960" cy="732.7" rx="824.9" ry="824.9"/>
		
			<ellipse transform="matrix(0.7071 -0.7071 0.7071 0.7071 -236.9091 893.4207)" class="st6" cx="960" cy="732.7" rx="688.5" ry="688.5"/>
		
			<ellipse transform="matrix(0.7071 -0.7071 0.7071 0.7071 -236.9093 893.4208)" class="st6" cx="960" cy="732.7" rx="677.2" ry="677.2"/>
		
			<ellipse transform="matrix(0.7071 -0.7071 0.7071 0.7071 -236.9093 893.4208)" class="st6" cx="960" cy="732.7" rx="625.2" ry="625.2"/>
		
			<ellipse transform="matrix(0.7071 -0.7071 0.7071 0.7071 -236.9093 893.4208)" class="st6" cx="960" cy="732.7" rx="614" ry="614"/>
		<path class="st6" d="M113.9,20.4c-3.1,3.6-8.5,4.1-12.1,1.1c-3.6-3.1-4.1-8.5-1.1-12.1c3.1-3.6,8.5-4.1,12.1-1.1
			C116.5,11.4,117,16.8,113.9,20.4z"/>
		<path class="st6" d="M89.6,50.4c-2.9,3.7-8.3,4.4-12.1,1.5c-3.7-2.9-4.4-8.3-1.5-12.1c2.9-3.7,8.3-4.4,12.1-1.5
			C91.8,41.3,92.5,46.7,89.6,50.4z"/>
		<path class="st6" d="M66.3,81.2c-2.8,3.8-8.2,4.7-12,1.9c-3.8-2.8-4.7-8.2-1.9-12c2.8-3.8,8.2-4.7,12-1.9
			C68.2,72,69.1,77.4,66.3,81.2z"/>
		<path class="st6" d="M44.1,112.8c-2.7,3.9-8,5-11.9,2.3c-3.9-2.7-5-8-2.3-11.9c2.7-3.9,8-5,11.9-2.3
			C45.7,103.5,46.7,108.8,44.1,112.8z"/>
		<path class="st6" d="M23,145.1c-2.5,4-7.8,5.3-11.9,2.7c-4-2.5-5.3-7.8-2.7-11.9c2.5-4,7.8-5.3,11.9-2.7
			C24.3,135.8,25.5,141.1,23,145.1z"/>
		<path class="st6" d="M425-94.5l2,10L399.9-66l12,36.5c-1.2,0.9-2.5,1.7-3.7,2.6c-11.8,8.6-23.3,17.4-34.6,26.4L363-29.1l22.5-17.1
			l2.4,10l-14.7,11.4l4.3,10.8l21.8-16.4l-12-38.2C399.7-77.6,412.3-86.2,425-94.5z"/>
		<path class="st6" d="M374.1-59.2l2.7,9.9l-25.9,20.1l14.2,35.7c-1.2,1-2.4,1.9-3.5,2.8c-11.2,9.3-22.1,18.8-32.8,28.5L316.4,9.9
			l21.4-18.5l3,9.8l-14,12.3l4.9,10.5l20.7-17.8l-14.3-37.4C350-40.9,362-50.2,374.1-59.2z"/>
		<path class="st6" d="M325.6-20.9l3.3,9.7l-24.6,21.7l16.4,34.7c-1.1,1-2.2,2-3.3,3.1c-10.6,10-20.9,20.2-31,30.5l-14.1-27.1
			l20.2-19.8l3.6,9.6l-13.2,13.2l5.6,10.1l19.5-19L291.4,9.3C302.6-1,314-11.1,325.6-20.9z"/>
		<path class="st6" d="M279.5,20.4l3.9,9.5l-23.2,23.2l18.6,33.6c-1,1.1-2.1,2.2-3.1,3.3c-10,10.6-19.6,21.4-29,32.4l-15.8-26.2
			l18.9-21l4.2,9.3l-12.3,14l6.2,9.8l18.3-20.2l-18.9-35.3C257.8,41.7,268.5,30.9,279.5,20.4z"/>
		<path class="st6" d="M236.1,64.6l4.5,9.2l-21.7,24.6l20.7,32.4c-1,1.2-2,2.3-2.9,3.4c-9.3,11.2-18.2,22.6-26.9,34.2l-17.4-25.1
			l17.6-22.1l4.8,9.1l-11.4,14.7l6.8,9.4l17-21.3L206,98.9C215.8,87.2,225.8,75.7,236.1,64.6z"/>
		<path class="st6" d="M195.6,111.3l5,8.9l-20.1,25.9l22.7,31c-0.9,1.2-1.8,2.4-2.7,3.6c-8.6,11.8-16.8,23.7-24.7,35.8l-18.9-24
			l16.1-23.2l5.3,8.7l-10.5,15.4l7.4,8.9l15.6-22.4l-23.2-32.7C176.8,135.2,186,123.1,195.6,111.3z"/>
		<path class="st6" d="M409.8,87.4l-54.1-28.2l22.1,56.8c4.8-4.6,9.7-9.1,14.7-13.6C398.3,97.4,404,92.3,409.8,87.4z"/>
		<path class="st6" d="M376.8,117.1l-55.5-25.3l25.1,55.6c4.6-4.8,9.2-9.6,14-14.3C365.8,127.6,371.3,122.3,376.8,117.1z"/>
		<path class="st6" d="M345.4,148.4l-56.7-22.3l27.9,54.2c4.3-5.1,8.7-10.1,13.2-15.1C335,159.6,340.2,154,345.4,148.4z"/>
		<g>
			<g>
			</g>
		</g>
	</g>
</g>
</svg>
